<mxfile host="app.diagrams.net" modified="2024-02-26T18:16:44.629Z" agent="Mozilla/5.0 (Macintosh; Intel Mac OS X 10_15_7) AppleWebKit/537.36 (KHTML, like Gecko) Chrome/120.0.0.0 Safari/537.36 OPR/106.0.0.0" etag="bYaKgNwCkdb0K7dYUm9f" version="23.1.7" type="github">
  <diagram id="C5RBs43oDa-KdzZeNtuy" name="Page-1">
    <mxGraphModel dx="894" dy="1672" grid="1" gridSize="10" guides="1" tooltips="1" connect="1" arrows="1" fold="1" page="1" pageScale="1" pageWidth="827" pageHeight="1169" math="0" shadow="0">
      <root>
        <mxCell id="WIyWlLk6GJQsqaUBKTNV-0" />
        <mxCell id="WIyWlLk6GJQsqaUBKTNV-1" parent="WIyWlLk6GJQsqaUBKTNV-0" />
        <mxCell id="nezEf8ZfyRDolDAz13G9-8" value="" style="edgeStyle=orthogonalEdgeStyle;rounded=0;orthogonalLoop=1;jettySize=auto;html=1;" edge="1" parent="WIyWlLk6GJQsqaUBKTNV-1" source="WIyWlLk6GJQsqaUBKTNV-7" target="nezEf8ZfyRDolDAz13G9-2">
          <mxGeometry relative="1" as="geometry" />
        </mxCell>
        <mxCell id="WIyWlLk6GJQsqaUBKTNV-7" value="string [ ] newArray = new string [3]" style="rounded=1;whiteSpace=wrap;html=1;fontSize=12;glass=0;strokeWidth=1;shadow=0;" parent="WIyWlLk6GJQsqaUBKTNV-1" vertex="1">
          <mxGeometry x="300" y="130" width="200" height="70" as="geometry" />
        </mxCell>
        <mxCell id="nezEf8ZfyRDolDAz13G9-7" value="" style="edgeStyle=orthogonalEdgeStyle;rounded=0;orthogonalLoop=1;jettySize=auto;html=1;" edge="1" parent="WIyWlLk6GJQsqaUBKTNV-1" source="nezEf8ZfyRDolDAz13G9-0" target="nezEf8ZfyRDolDAz13G9-1">
          <mxGeometry relative="1" as="geometry" />
        </mxCell>
        <mxCell id="nezEf8ZfyRDolDAz13G9-0" value="Start" style="shape=document;whiteSpace=wrap;html=1;boundedLbl=1;" vertex="1" parent="WIyWlLk6GJQsqaUBKTNV-1">
          <mxGeometry x="310" y="-110" width="190" height="70" as="geometry" />
        </mxCell>
        <mxCell id="nezEf8ZfyRDolDAz13G9-6" value="" style="edgeStyle=orthogonalEdgeStyle;rounded=0;orthogonalLoop=1;jettySize=auto;html=1;" edge="1" parent="WIyWlLk6GJQsqaUBKTNV-1" source="nezEf8ZfyRDolDAz13G9-1" target="WIyWlLk6GJQsqaUBKTNV-7">
          <mxGeometry relative="1" as="geometry" />
        </mxCell>
        <mxCell id="nezEf8ZfyRDolDAz13G9-1" value="string[ ] array" style="shape=parallelogram;perimeter=parallelogramPerimeter;whiteSpace=wrap;html=1;fixedSize=1;" vertex="1" parent="WIyWlLk6GJQsqaUBKTNV-1">
          <mxGeometry x="305" y="10" width="190" height="70" as="geometry" />
        </mxCell>
        <mxCell id="nezEf8ZfyRDolDAz13G9-9" value="" style="edgeStyle=orthogonalEdgeStyle;rounded=0;orthogonalLoop=1;jettySize=auto;html=1;" edge="1" parent="WIyWlLk6GJQsqaUBKTNV-1" source="nezEf8ZfyRDolDAz13G9-2" target="nezEf8ZfyRDolDAz13G9-4">
          <mxGeometry relative="1" as="geometry" />
        </mxCell>
        <mxCell id="nezEf8ZfyRDolDAz13G9-2" value="Array.Copy(array, newArray, 3)" style="rounded=1;whiteSpace=wrap;html=1;fontSize=12;glass=0;strokeWidth=1;shadow=0;" vertex="1" parent="WIyWlLk6GJQsqaUBKTNV-1">
          <mxGeometry x="300" y="260" width="200" height="70" as="geometry" />
        </mxCell>
        <mxCell id="nezEf8ZfyRDolDAz13G9-3" value="End" style="shape=document;whiteSpace=wrap;html=1;boundedLbl=1;" vertex="1" parent="WIyWlLk6GJQsqaUBKTNV-1">
          <mxGeometry x="300" y="530" width="200" height="70" as="geometry" />
        </mxCell>
        <mxCell id="nezEf8ZfyRDolDAz13G9-10" value="" style="edgeStyle=orthogonalEdgeStyle;rounded=0;orthogonalLoop=1;jettySize=auto;html=1;" edge="1" parent="WIyWlLk6GJQsqaUBKTNV-1" source="nezEf8ZfyRDolDAz13G9-4" target="nezEf8ZfyRDolDAz13G9-3">
          <mxGeometry relative="1" as="geometry" />
        </mxCell>
        <mxCell id="nezEf8ZfyRDolDAz13G9-4" value="return newArray" style="shape=parallelogram;perimeter=parallelogramPerimeter;whiteSpace=wrap;html=1;fixedSize=1;" vertex="1" parent="WIyWlLk6GJQsqaUBKTNV-1">
          <mxGeometry x="300" y="390" width="190" height="70" as="geometry" />
        </mxCell>
      </root>
    </mxGraphModel>
  </diagram>
</mxfile>
